# Blender v2.93.0 OBJ File: ''
# www.blender.org
mtllib constellation_focus.mtl
o constellation_focus
v 0.225003 0.589344 0.967857
v 0.055041 0.355424 0.789152
v 0.330038 0.266080 0.967857
v 0.669955 0.266080 0.967857
v 0.499997 0.032152 0.789152
v 0.225003 0.878495 0.789152
v 0.500002 0.789142 0.967857
v 0.055039 0.176727 0.500000
v -0.049999 0.500000 0.500000
v 0.775002 0.878495 0.789152
v 0.774999 0.589353 0.967857
v 0.944958 0.355424 0.789152
v 0.669959 -0.023080 0.500000
v 0.330037 -0.023071 0.500000
v 0.224998 0.121505 0.210848
v 0.055042 0.644576 0.210848
v 0.055041 0.823282 0.500000
v 0.330041 1.023080 0.500000
v 0.669963 1.023071 0.500000
v 1.049999 0.500000 0.500000
v 0.944959 0.176718 0.500000
v 0.774997 0.121505 0.210848
v 0.499998 0.210858 0.032143
v 0.225001 0.410647 0.032143
v 0.330045 0.733920 0.032143
v 0.500003 0.967848 0.210848
v 0.944961 0.823273 0.500000
v 0.774997 0.410656 0.032143
v 0.944959 0.644576 0.210848
v 0.669962 0.733920 0.032143
vt 0.375000 0.875000
vt 0.375000 1.000000
vt 0.250000 0.937500
vt 0.750000 0.812500
vt 0.875000 0.750000
vt 0.875000 0.875000
vt 0.125000 0.875000
vt 0.125000 1.000000
vt -0.000000 0.937500
vt 0.500000 1.000000
vt 0.375000 0.937500
vt 0.500000 0.875000
vt 0.750000 0.218750
vt 0.625000 0.250000
vt 0.562500 0.156250
vt 0.625000 0.937500
vt 0.750000 0.875000
vt 0.750000 1.000000
vt 0.625000 0.812500
vt 0.750000 0.750000
vt 0.750000 0.875000
vt 0.375000 0.687500
vt 0.500000 0.625000
vt 0.500000 0.750000
vt 0.875000 0.875000
vt 0.875000 1.000000
vt 0.750000 0.937500
vt 0.500000 0.750000
vt 0.375000 0.812500
vt 0.000000 0.687500
vt 0.125000 0.625000
vt 0.125000 0.750000
vt 0.187500 0.343750
vt 0.250000 0.250000
vt 0.375000 0.281250
vt 0.375000 0.093750
vt 0.375000 0.218750
vt 0.250000 0.250000
vt 0.625000 0.250000
vt 0.750000 0.281250
vt 0.750000 0.406250
vt 0.625000 0.625000
vt 0.625000 0.750000
vt 0.500000 0.687500
vt 0.125000 0.687500
vt 0.250000 0.625000
vt 0.250000 0.750000
vt 0.625000 1.000000
vt 0.500000 0.937500
vt 0.625000 0.875000
vt 0.750000 0.625000
vt 0.750000 0.750000
vt 0.625000 0.687500
vt 0.250000 0.687500
vt 0.375000 0.625000
vt 0.375000 0.750000
vt 0.125000 0.875000
vt 0.000000 0.809021
vt 0.125000 0.750000
vt 0.125000 0.812500
vt 0.250000 0.750000
vt 0.250000 0.875000
vt 0.500000 0.812500
vt 0.625000 0.750000
vt 0.625000 0.875000
vt 0.375000 0.750000
vt 0.375000 0.875000
vt 0.250000 0.812500
vt 0.125000 0.937500
vt 0.250000 0.875000
vt 0.250000 1.000000
vt 0.562500 0.093750
vt 0.562500 0.218750
vt 0.437500 0.250000
vt 0.437500 0.062500
vt 0.000000 0.531250
vt 0.062500 0.437500
vt 0.187500 0.468750
vt 0.437500 0.437500
vt 0.562500 0.468750
vt 0.562500 0.593750
vt 0.375000 0.531250
vt 0.375000 0.343750
vt 0.437500 0.250000
vt 0.437500 0.437500
vt 0.187500 0.593750
vt 0.062500 0.625000
vt 0.062500 0.062500
vt 0.187500 0.218750
vt 0.062500 0.250000
vt 0.000000 0.156250
vt 0.625000 0.437500
vt 0.750000 0.468750
vt 0.750000 0.593750
vt 0.562500 0.531250
vt 0.250000 0.625000
vt 0.187500 0.531250
vt 0.250000 0.437500
vt 0.250000 0.062500
vt 0.187500 0.156250
vt 0.187500 0.406250
vt 0.000000 0.343750
vt 0.062500 0.250000
vt 0.187500 0.281250
vt 0.187500 0.093750
vt 0.250000 0.437500
vt 0.375000 0.406250
vt 0.062500 0.437500
vt 0.375000 0.156250
vt 0.562500 0.281250
vt 0.562500 0.406250
vt 0.625000 0.625000
vt 0.625000 0.062500
vt 0.750000 0.093750
vt 0.437500 0.625000
vt 0.562500 0.343750
vt 0.625000 0.437500
vt 0.375000 0.468750
vt 0.375000 0.593750
vn -0.5773 -0.1876 0.7947
vn 0.0000 -0.6071 0.7947
vn -0.3568 0.4911 0.7947
vn -0.9342 -0.3035 0.1876
vn 0.0000 0.0000 1.0000
vn 0.3568 0.4911 0.7947
vn 0.5773 -0.1876 0.7947
vn -0.0000 -0.9822 0.1876
vn -0.5774 -0.7947 -0.1876
vn -0.9342 0.3035 -0.1876
vn -0.5773 0.7947 0.1876
vn 0.5257 -0.7236 0.4472
vn 0.0000 0.8944 0.4472
vn 0.8507 0.2764 0.4472
vn 0.8506 0.2764 0.4472
vn 0.9342 -0.3035 0.1876
vn 0.5773 -0.7947 -0.1876
vn -0.3568 -0.4911 -0.7947
vn -0.5773 0.1876 -0.7947
vn 0.0000 0.9822 -0.1876
vn 0.5774 0.7947 0.1876
vn 0.3568 -0.4911 -0.7947
vn 0.9342 0.3035 -0.1876
vn -0.0000 0.6071 -0.7947
vn 0.5773 0.1876 -0.7947
vn 0.8506 -0.2764 -0.4472
vn -0.5257 -0.7236 0.4472
vn 0.5257 0.7236 -0.4472
vn -0.8506 0.2764 0.4472
vn -0.0000 -0.8944 -0.4472
vn 0.0000 0.0000 -1.0000
vn -0.8507 -0.2764 -0.4472
vn -0.5257 0.7236 -0.4472
usemtl default_obj
s 1
f 1/1/1 2/2/1 3/3/1
f 4/4/2 3/5/2 5/6/2
f 6/7/3 1/8/3 7/9/3
f 8/10/4 2/11/4 9/12/4
f 7/13/5 1/14/5 3/15/5
f 10/16/6 7/17/6 11/18/6
f 11/19/7 4/20/7 12/21/7
f 13/22/8 5/23/8 14/24/8
f 14/25/9 8/26/9 15/27/9
f 16/28/10 9/12/10 17/29/10
f 17/30/11 6/31/11 18/32/11
f 12/33/12 4/34/12 5/35/12
f 19/36/13 18/37/13 6/38/13
f 10/39/14 11/40/15 12/41/14
f 20/42/16 12/43/16 21/44/16
f 21/45/17 13/46/17 22/47/17
f 23/48/18 15/49/18 24/50/18
f 24/51/19 16/52/19 25/53/19
f 26/54/20 18/55/20 19/56/20
f 19/57/21 10/58/21 27/59/21
f 22/60/22 23/61/22 28/62/22
f 29/63/23 27/64/23 20/65/23
f 25/66/24 26/67/24 30/68/24
f 28/69/25 30/70/25 29/71/25
f 20/72/26 21/73/26 22/74/26 29/75/26
f 2/76/27 8/77/27 14/78/27
f 30/79/28 26/80/28 19/81/28 29/82/28
f 1/83/29 6/84/29 2/85/29
f 5/86/27 3/87/27 2/76/27 14/78/27
f 22/88/30 14/89/30 15/90/30 23/91/30
f 23/92/31 24/93/31 25/94/31 28/95/31
f 15/96/32 8/97/32 9/98/32
f 10/99/13 19/36/13 6/38/13 7/100/13
f 26/101/33 16/102/33 17/103/33 18/104/33
f 22/88/30 13/105/30 14/89/30
f 21/106/12 12/33/12 5/35/12 13/107/12
f 26/101/33 25/108/33 16/102/33
f 22/74/26 28/109/26 29/75/26
f 17/110/29 9/111/29 2/85/29 6/84/29
f 25/94/31 30/112/31 28/95/31
f 4/113/5 11/114/5 7/13/5 3/15/5
f 27/115/28 29/82/28 19/81/28
f 27/116/14 10/39/14 12/41/14 20/117/14
f 15/96/32 9/98/32 16/118/32 24/119/32
